# xmcd
#
# Track frame offsets:
#       150
#       22067
#       44965
#       64907
#       90980
#       110807
#       132887
#       151960
#       172865
#       196915
#       217725
#
# Disc length: 3184 seconds
#
# Revision: 4
# Processed by: cddbd v1.5PL3 Copyright (c) Steve Scherf et al.
# Submitted via: CD-DA_X-Tractor v0.24
#
DISCID=950c6e0b
DTITLE=Norman Brown - Celebration
DYEAR=1999
DGENRE=
TTITLE0=Out'a Nowhere
TTITLE1=Together At Last
TTITLE2=Paradise
TTITLE3=You Make Me Feel Brand New
TTITLE4=Celebration
TTITLE5=Getting By
TTITLE6=Rain
TTITLE7=Never Again
TTITLE8=Breaking Out
TTITLE9=It's Time For Love
TTITLE10=Stay Strong
EXTD=
EXTT0=
EXTT1=
EXTT2=
EXTT3=
EXTT4=
EXTT5=
EXTT6=
EXTT7=
EXTT8=
EXTT9=
EXTT10=
PLAYORDER=
